<?xml version="1.0" encoding="UTF-8" standalone="no"?>
<!DOCTYPE svg PUBLIC "-//W3C//DTD SVG 1.1//EN" "http://www.w3.org/Graphics/SVG/1.1/DTD/svg11.dtd">
<svg version="1.1" xmlns="http://www.w3.org/2000/svg" xmlns:xlink="http://www.w3.org/1999/xlink" preserveAspectRatio="xMidYMid meet" viewBox="0 0 640 640" width="640" height="640"><defs><path d="M587.74 350.89C566.23 353.05 546.78 340.75 537.79 321.54C536.09 321.69 527.6 322.44 512.3 323.79C500.75 329.36 494.34 332.46 493.06 333.08C488.65 335.19 485.69 339.4 485.02 344.23C483.2 357.26 479.9 369.8 475.32 381.72C473.76 385.76 474.03 390.27 476.15 394.03C476.61 394.85 478.89 398.93 483.01 406.29C494.44 413.96 500.8 418.23 502.07 419.08C512.12 415.24 523.82 416.16 533.44 422.61C549.75 433.56 553.66 456.09 541.53 471.95C531.09 485.61 511.68 489.36 496.9 480.58C487.49 475 481.8 465.73 480.41 455.82C479 454.87 471.96 450.15 459.28 441.65C451.3 440.68 446.87 440.13 445.98 440.03C441.41 439.47 436.87 441.04 433.54 444.22C422.32 454.91 409.65 464.09 395.87 471.44C391.24 473.91 388.26 478.65 387.94 483.88C387.82 485.67 387.26 494.65 386.25 510.81C391.27 530.72 394.05 541.78 394.61 543.99C408.84 547.96 420.61 559.25 424.48 574.6C430.32 597.8 415.91 621.35 392.4 626.58C371.2 631.31 349.45 618.94 342.71 598.28C337.46 582.16 342.28 565.48 353.37 554.59C352.81 552.36 350.01 541.24 344.97 521.21C337.18 508.7 332.86 501.75 331.99 500.36C328.51 494.76 322.36 491.45 315.76 491.46C315.72 491.46 315.7 491.46 315.66 491.46C304.3 491.46 293.18 490.33 282.43 488.22C276.03 486.94 269.42 488.97 264.92 493.71C263.78 494.92 258.07 500.95 247.78 511.8C236.27 535.69 229.87 548.96 228.59 551.61C233.08 560.74 233.48 571.77 228.73 581.65C220.19 599.36 198.4 606.4 180.98 596.61C166.08 588.21 159.62 569.66 166.11 553.82C170.54 543.02 179.72 535.8 190.11 533.38C191.4 530.71 197.84 517.35 209.42 493.31C211.7 477.17 212.96 468.21 213.21 466.41C213.9 461.45 212.01 456.45 208.11 453.31C192.75 440.84 179.58 425.79 169.28 408.81C166.72 404.59 162.13 402.03 157.19 401.99C155.4 401.97 146.45 401.89 130.34 401.73C112.7 407.28 102.9 410.36 100.94 410.98C98.87 429.26 86.36 445.51 67.68 451.38C42.59 459.27 15.87 445.48 7.73 420.55C-0.42 395.63 13.34 368.37 38.23 360.14C55.66 354.37 73.97 359.16 86.36 370.94C88.44 370.29 98.84 367.02 117.56 361.13C131.23 351.38 138.83 345.96 140.35 344.88C143.74 342.48 145.54 338.45 145.21 334.32C144.83 329.74 144.64 325.12 144.64 320.44C144.64 295.04 150.22 270.93 160.19 249.24C161.65 246.06 161.61 242.4 160.08 239.25C159.63 238.33 157.37 233.73 153.32 225.45C142.33 217.15 136.22 212.54 135 211.62C124.74 214.91 113.12 213.33 103.87 206.36C88.19 194.52 85.54 171.81 98.52 156.65C109.7 143.6 129.3 140.93 143.57 150.51C152.66 156.61 157.83 166.17 158.66 176.14C160.01 177.16 166.78 182.27 178.97 191.47C191.25 193.66 198.07 194.87 199.44 195.11C214.33 181.29 231.69 170.08 250.77 162.22C251.09 160.28 252.69 150.55 255.57 133.03C251.93 114.94 249.91 104.89 249.51 102.88C231.56 98.25 216.99 84.5 213.07 66.17C207.54 40.26 225.34 15.03 252.85 9.82C280.34 4.61 307.11 21.38 312.65 47.28C316.79 66.67 307.87 85.67 291.58 96.19C291.96 98.09 293.87 107.56 297.31 124.63C305.75 138.09 310.44 145.57 311.37 147.07C312.29 148.53 313.91 149.42 315.63 149.42C315.63 149.42 315.66 149.42 315.66 149.42C347.86 149.42 378.02 158.38 403.77 173.94C405.18 174.78 406.92 174.9 408.42 174.19C409.88 173.51 417.23 170.11 430.44 163.99C445.87 147.3 454.44 138.03 456.15 136.17C454.61 126.2 457.45 115.63 464.84 107.64C478.19 93.22 501.04 92.85 514.83 107.28C526.92 119.94 527.39 140.13 515.91 153.35C508.48 161.91 497.82 165.86 487.41 165.08C485.69 166.93 477.12 176.21 461.7 192.89C456.69 206.37 453.9 213.86 453.35 215.36C452.76 216.92 453.02 218.66 454 220.01C464.14 233.93 472.23 249.43 477.81 266.08C479.36 270.65 482.99 274.21 487.64 275.52C489.04 275.91 496 277.87 508.55 281.38C524.85 279.94 533.9 279.14 535.72 278.98C542.38 259.77 559.01 245.24 579.44 243.19C607.53 240.37 632.16 262.2 634.45 291.94C636.74 321.67 615.82 348.07 587.74 350.89Z" id="bleyDcJfy"></path><path d="M315.66 193.8C245.72 193.8 189.02 250.5 189.02 320.44C189.02 390.38 245.72 447.08 315.66 447.08C385.6 447.08 442.3 390.38 442.3 320.44C442.3 250.5 385.6 193.8 315.66 193.8Z" id="dgJ9gHF0G"></path><path d="M334.96 195.26C328.66 194.3 322.22 193.8 315.66 193.8C245.72 193.8 189.02 250.5 189.02 320.44C189.02 390.38 245.72 447.08 315.66 447.08C322.22 447.08 328.66 446.58 334.96 445.62C274.18 436.32 227.62 383.82 227.62 320.44C227.62 257.06 274.18 204.56 334.96 195.26Z" id="abiVK9LYB"></path><path d="M102.58 18.09C82.67 18.09 66.52 34.23 66.52 54.15C66.52 74.07 82.67 90.21 102.58 90.21C122.5 90.21 138.65 74.07 138.65 54.15C138.65 34.23 122.5 18.09 102.58 18.09Z" id="f1prlwzspi"></path><path d="M92.73 505.7C79.57 505.7 68.91 516.36 68.91 529.52C68.91 542.67 79.57 553.34 92.73 553.34C105.88 553.34 116.55 542.67 116.55 529.52C116.55 516.36 105.88 505.7 92.73 505.7Z" id="b1da0W95ua"></path><path d="M530.07 533.56C510.7 533.56 494.99 549.27 494.99 568.64C494.99 588.02 510.7 603.73 530.07 603.73C549.45 603.73 565.16 588.02 565.16 568.64C565.16 549.27 549.45 533.56 530.07 533.56Z" id="a16QtNtdKc"></path><path d="M276.79 252.81C258.72 252.81 244.08 267.45 244.08 285.52C244.08 303.58 258.72 318.23 276.79 318.23C294.85 318.23 309.5 303.58 309.5 285.52C309.5 267.45 294.85 252.81 276.79 252.81Z" id="bef2Krat1"></path><path d="M303.04 364.85C290.75 364.85 280.78 374.82 280.78 387.12C280.78 399.41 290.75 409.38 303.04 409.38C315.34 409.38 325.31 399.41 325.31 387.12C325.31 374.82 315.34 364.85 303.04 364.85Z" id="b4qNOx0kWb"></path><path d="M372.95 301.74C362.63 301.74 354.26 310.12 354.26 320.44C354.26 330.77 362.63 339.14 372.95 339.14C383.28 339.14 391.65 330.77 391.65 320.44C391.65 310.12 383.28 301.74 372.95 301.74Z" id="q7KhFHQSpJ"></path></defs><g><g><g><use xlink:href="#bleyDcJfy" opacity="1" fill="#d8325b" fill-opacity="1"></use><g><use xlink:href="#bleyDcJfy" opacity="1" fill-opacity="0" stroke="#000000" stroke-width="1" stroke-opacity="0"></use></g></g><g><use xlink:href="#dgJ9gHF0G" opacity="1" fill="#f58a97" fill-opacity="1"></use><g><use xlink:href="#dgJ9gHF0G" opacity="1" fill-opacity="0" stroke="#000000" stroke-width="1" stroke-opacity="0"></use></g></g><g><use xlink:href="#abiVK9LYB" opacity="1" fill="#f07281" fill-opacity="1"></use><g><use xlink:href="#abiVK9LYB" opacity="1" fill-opacity="0" stroke="#000000" stroke-width="1" stroke-opacity="0"></use></g></g><g><use xlink:href="#f1prlwzspi" opacity="1" fill="#d8325b" fill-opacity="1"></use><g><use xlink:href="#f1prlwzspi" opacity="1" fill-opacity="0" stroke="#000000" stroke-width="1" stroke-opacity="0"></use></g></g><g><use xlink:href="#b1da0W95ua" opacity="1" fill="#d8325b" fill-opacity="1"></use><g><use xlink:href="#b1da0W95ua" opacity="1" fill-opacity="0" stroke="#000000" stroke-width="1" stroke-opacity="0"></use></g></g><g><use xlink:href="#a16QtNtdKc" opacity="1" fill="#d8325b" fill-opacity="1"></use><g><use xlink:href="#a16QtNtdKc" opacity="1" fill-opacity="0" stroke="#000000" stroke-width="1" stroke-opacity="0"></use></g></g><g><use xlink:href="#bef2Krat1" opacity="1" fill="#d8325b" fill-opacity="1"></use><g><use xlink:href="#bef2Krat1" opacity="1" fill-opacity="0" stroke="#000000" stroke-width="1" stroke-opacity="0"></use></g></g><g><use xlink:href="#b4qNOx0kWb" opacity="1" fill="#d8325b" fill-opacity="1"></use><g><use xlink:href="#b4qNOx0kWb" opacity="1" fill-opacity="0" stroke="#000000" stroke-width="1" stroke-opacity="0"></use></g></g><g><use xlink:href="#q7KhFHQSpJ" opacity="1" fill="#d8325b" fill-opacity="1"></use><g><use xlink:href="#q7KhFHQSpJ" opacity="1" fill-opacity="0" stroke="#000000" stroke-width="1" stroke-opacity="0"></use></g></g></g></g></svg>